<svg width="80" height="70" viewBox="0 0 80 70" fill="none" xmlns="http://www.w3.org/2000/svg">
<path d="M53.0793 60.6125C53.4563 60.5202 53.7591 60.6163 53.9762 60.9494C54.1728 61.251 54.011 61.6332 53.896 61.9223C53.5395 62.8187 53.1414 63.7025 52.8257 64.6138C52.7399 64.8616 52.6333 65.2569 52.7628 65.5005C53.0162 65.6153 52.9057 65.5909 53.2072 65.5654L53.2082 65.5644C54.0847 65.1544 54.8209 63.9514 55.4391 63.1214C55.7773 62.4197 56.358 61.0023 57.0045 60.6217C57.269 60.5998 57.1665 60.5727 57.39 60.7292C57.5211 61.0234 57.4199 61.1752 57.2957 61.4647C57.1529 61.798 57.1261 62.4238 56.9903 62.7156C55.901 65.0528 55.377 68.0313 52.9475 69.4165C52.7555 69.5259 52.3658 69.5787 52.1582 69.4835C52.2702 69.1805 53.1281 68.7372 53.4547 68.3918C54.5074 67.2779 55.0211 65.8546 55.4462 64.4068C55.4851 64.2741 55.6219 63.9342 55.6187 63.8245C54.9141 64.2905 54.5022 65.1901 53.3908 66.03L53.1585 66.1974C50.7918 67.1348 51.8513 64.1365 52.3864 63.1458C52.6463 62.6647 52.8789 62.0037 52.9931 61.4739C52.8909 61.2813 52.8397 61.2007 52.7912 60.9818C52.911 60.7021 52.8352 60.7994 53.0793 60.6125Z" fill="#241C1C"/>
<path d="M38.1061 56.8365C39.1698 57.8306 36.4065 62.8161 36.6645 63.5141C36.9921 63.3989 37.4632 63.1498 37.7866 62.9906C40.1989 61.6403 38.9054 61.2986 39.3753 60.6957C40.5615 60.3449 40.6095 61.3357 40.1483 62.0542C39.747 62.6795 38.4384 63.1359 37.7734 63.4562C37.6246 63.9002 38.2379 64.9435 38.517 65.3463C39.2142 65.6986 39.4579 65.6166 40.2427 65.5776C39.7553 65.9702 39.311 66.3885 38.6154 66.3425C38.3308 66.3237 38.0564 66.132 37.8535 65.8545C37.4552 65.3094 37.1585 64.5528 36.9262 63.9107C36.85 63.891 36.7824 63.8732 36.7233 63.858C36.2116 64.4173 35.7604 66.4196 35.0179 66.4115C34.9907 66.3814 34.8935 66.2959 34.8972 66.2401C35.0053 64.6364 36.163 62.989 36.5397 61.3897C36.7012 60.7043 37.5184 57.2305 37.7003 56.9623C37.9576 56.8 37.8565 56.8152 38.1061 56.8365Z" fill="#241C1C"/>
<path fill-rule="evenodd" clip-rule="evenodd" d="M24.748 56.8599C24.9403 56.8357 24.9678 56.8305 25.1356 56.9238C25.6607 57.7351 23.9048 61.5038 24.0987 62.0755C24.7489 61.2184 25.0861 60.8378 26.1907 60.5821C26.4299 60.6432 26.612 60.6781 26.7689 60.7576C26.9261 60.8372 27.0589 60.9623 27.2001 61.203C27.2783 61.3363 27.3357 61.4729 27.3756 61.6118C27.5487 62.2149 27.4015 62.8617 27.2863 63.4694C27.014 64.9069 24.7582 67.0589 23.2333 66.1964C22.3451 66.0904 22.4358 64.395 22.5851 63.7728C22.9102 62.4191 23.3493 61.0455 23.8045 59.7299C24.0098 59.1366 24.3132 57.1591 24.748 56.8599ZM26.427 62.0684C26.2328 61.0371 25.7058 61.0802 25.2045 61.4404C25.0932 61.5204 24.9837 61.6165 24.8789 61.7194C24.6166 61.9768 24.3872 62.2799 24.2519 62.4985C23.5638 63.4936 23.0463 64.4083 23.28 65.6912L23.2922 65.7571C24.1388 65.9923 24.9263 65.7888 25.4977 65.0774C25.9799 64.4448 26.579 62.8763 26.427 62.0684Z" fill="#241C1C"/>
<path fill-rule="evenodd" clip-rule="evenodd" d="M28.8426 63.5354C29.3658 62.1206 30.9426 60.1377 32.6206 60.7515C32.6458 60.7783 32.6728 60.8068 32.6998 60.8347C32.7733 60.9106 32.8501 60.9913 32.9189 61.0741C32.9779 61.1452 33.0318 61.2168 33.0691 61.2913L33.1462 61.2628C33.5031 61.1008 33.4371 60.6919 34.1049 60.6511C34.6651 61.3002 32.4609 64.3663 32.9402 65.4193C33.2805 65.6465 33.7375 65.3378 34.0623 65.5908C34.022 66.0924 33.7045 66.1388 33.3024 66.2756C31.9914 66.7214 32.074 65.4063 32.1367 64.5651L32.1388 64.5296C31.7734 64.9324 31.5733 65.311 31.2592 65.675C29.3293 67.4677 28.1273 65.4702 28.8426 63.5354ZM32.0099 61.0478C30.9545 61.5548 30.4243 61.8325 30.0042 63.024C29.62 64.1141 29.2198 66.8817 31.25 65.1829C31.5058 64.689 31.7887 64.2093 32.0972 63.7464C32.4822 63.1341 32.8885 62.1044 32.8022 61.3724L32.6034 61.2547C32.4187 61.1597 32.262 61.1217 32.0099 61.0478Z" fill="#241C1C"/>
<path fill-rule="evenodd" clip-rule="evenodd" d="M44.4925 60.6278C47.0346 60.6108 46.0601 64.348 42.1997 64.1836C42.2607 64.4997 42.2542 64.8877 42.3458 65.1809C42.7037 66.3262 44.1291 65.6205 44.9216 65.2945C44.9932 65.2667 44.9739 65.2818 45.0718 65.2996L45.0748 65.4782C44.6733 66.3909 42.8572 66.5451 42.0607 66.168C40.7933 65.5678 41.1627 63.9682 41.6579 62.9611C42.1811 61.8974 42.9476 61.043 44.0897 60.6491C44.2237 60.6364 44.358 60.6287 44.4925 60.6278ZM44.4905 61.0924C44.0587 61.1899 43.7456 61.2722 43.4191 61.5976C42.9251 62.09 42.2501 63.2369 42.3853 63.9483L42.4898 64.0335L42.7891 63.9168C44.8548 63.5128 45.7396 61.0305 44.4905 61.0924Z" fill="#241C1C"/>
<path d="M47.7065 60.715C49.5133 60.129 48.684 62.1202 48.4866 62.9885C48.8011 62.7534 48.8266 62.6768 49.0182 62.325L49.1856 62.0846C49.6436 61.4769 50.5334 60.6045 51.1812 60.6765C51.6796 61.0169 51.3792 61.6282 51.2218 62.0998C50.8589 61.907 50.6992 61.836 50.397 61.5439C49.9163 61.9175 49.6333 62.1504 49.2384 62.6233C49.0658 62.8334 48.8437 63.0828 48.724 63.3203C48.156 64.5486 47.8671 64.7819 47.4315 66.2106C47.1277 66.4083 46.8234 66.2966 46.5986 66.0453C46.5274 65.6943 46.6819 65.3948 46.8381 65.0906C47.43 63.9381 47.6 62.7394 47.8668 61.4881C47.7128 61.2117 47.5202 60.9923 47.7065 60.715Z" fill="#241C1C"/>
<path d="M62.5529 62.8495C63.8748 62.589 69.4041 62.6219 70.459 62.8526C70.4236 63.0052 70.4105 63.2128 70.2804 63.2625C69.1329 63.6985 65.5951 63.3011 64.7097 63.4603C64.1742 63.4428 62.5994 63.5829 62.4037 63.0717C62.4365 63.0064 62.4964 62.8607 62.5529 62.8495Z" fill="#241C1C"/>
<path d="M14.958 62.6761C15.5814 62.6742 17.3138 62.5529 17.7408 62.9743L17.7134 63.1478C17.5562 63.3587 17.4054 63.3658 17.1463 63.4258C14.9035 63.4386 12.6569 63.4414 10.4139 63.4309C10.0849 63.4293 9.65165 63.3251 9.49682 63.0129L9.56073 62.9155C9.7914 62.7536 10.0245 62.7504 10.3054 62.7146C10.6286 62.6974 10.93 62.6934 11.2529 62.6913L14.958 62.6761Z" fill="#241C1C"/>
<path d="M5.01368 34.5578C6.37066 34.3598 7.75492 34.614 8.95304 35.2811C10.5877 36.2107 11.3198 37.768 11.7967 39.5198C11.0627 39.5202 10.3073 39.5471 9.57189 39.5634C9.22614 38.1254 8.29694 36.8154 6.72922 36.5899C3.85589 36.1766 2.43401 37.4831 2.20449 40.2979C2.14911 40.977 2.10763 41.7567 2.13347 42.4588C2.21664 44.719 1.57759 48.5796 4.39483 49.4539C5.68411 49.8422 7.47543 49.7955 8.52593 48.8837C9.71029 47.8556 9.70786 46.0416 9.81741 44.5994C9.12173 44.5542 8.41227 44.568 7.71432 44.571C7.19097 44.5696 6.59742 44.5348 6.06878 44.5163C6.04187 43.8079 6.06254 43.3476 6.11341 42.6374C7.891 42.5673 10.0451 42.6453 11.8901 42.6151C11.7954 44.9621 12.2262 47.3783 10.767 49.4377C8.95355 51.9967 4.77132 52.3085 2.28464 50.5983C0.037964 49.0531 -0.0347492 46.3857 0.00705232 43.9197C0.0367509 42.1679 -0.105287 40.3787 0.312421 38.6615C0.486412 37.9388 0.797286 37.2561 1.22853 36.6507C2.20241 35.2756 3.43559 34.8314 5.01368 34.5578Z" fill="#241C1C"/>
<path fill-rule="evenodd" clip-rule="evenodd" d="M20.2618 35.1137C21.6969 34.3975 23.6578 34.2939 25.1711 34.8053L25.5241 34.923C26.7596 35.459 27.6381 36.16 28.2755 37.371C29.2635 39.2489 29.2306 45.97 28.5768 48.0569C28.1642 49.3738 27.1999 50.3839 25.9847 51.0091C24.5812 51.7312 22.5392 51.8645 21.042 51.3723C19.7286 50.9407 18.5993 50.0827 17.9711 48.8381C17.6493 48.2007 17.4762 47.493 17.3796 46.7888C17.1223 44.9124 17.1445 39.5826 17.7144 37.8783C18.1099 36.6957 19.1593 35.6639 20.2618 35.1137ZM25.0351 36.8597C24.5122 36.5757 23.1609 36.4532 22.5506 36.532C21.4521 36.7391 20.7744 36.8423 20.0741 37.8529C19.742 38.3402 19.5156 38.8921 19.4086 39.4721C19.1413 40.8598 19.2421 45.0865 19.3792 46.6396C19.4443 47.3743 20.1794 48.6719 20.8431 49.0745C21.811 49.6617 22.853 49.7409 23.9658 49.6426C25.2036 49.2378 25.8202 49.0124 26.4646 47.7485C27.2845 46.1401 26.9418 44.5144 26.9952 42.7611C27.0595 40.649 27.2292 38.0522 25.0351 36.8597Z" fill="#241C1C"/>
<path fill-rule="evenodd" clip-rule="evenodd" d="M54.4084 35.1837C56.7709 34.0983 59.7113 34.2783 61.6489 36.1282C62.8671 37.5546 63.0421 38.4073 63.2133 40.2624C63.2592 42.4618 63.4106 46.4372 62.7253 48.411C62.3116 49.3361 61.6434 50.1564 60.7785 50.6946C59.2898 51.6142 57.4926 51.8947 55.7942 51.4738C53.0976 50.8271 51.4431 48.5683 51.5495 45.8311C51.706 41.8013 50.3774 37.5793 54.4084 35.1837ZM59.6635 37.0728C58.5698 36.3139 56.2744 36.3324 55.1703 37.0241C53.3991 38.1336 53.4597 41.0078 53.4638 42.8311C53.4973 44.1746 53.3437 46.4886 54.0127 47.574C54.3095 48.3081 54.6055 48.9123 55.3742 49.2388C55.5527 49.3132 55.7338 49.3815 55.9169 49.4438C58.145 50.2287 60.5102 49.1666 61.1062 46.7685C61.3531 45.4515 61.2194 44.0719 61.2391 42.7236C61.2683 40.7344 61.5307 38.3684 59.6635 37.0728Z" fill="#241C1C"/>
<path d="M40.5237 34.4817C42.1792 34.6871 42.8989 34.9847 44.2815 35.9771C45.2375 36.9418 45.6945 38.2568 46.0467 39.534C45.2777 39.5339 44.5087 39.5282 43.7397 39.5167C43.0796 35.1343 36.326 35.5602 36.4748 40.2786C36.5488 42.6267 36.0354 45.6493 36.8339 47.8824C37.5334 49.8379 41.348 50.2469 42.7638 48.9111C43.9891 47.7544 44.0054 46.1091 44.0745 44.5599C42.9601 44.6239 41.4819 44.5724 40.3411 44.5619L40.4091 42.6029C41.5815 42.6769 45.0508 42.6996 46.1857 42.5978C46.1861 43.6464 46.1912 44.726 46.1715 45.7469C46.1052 49.1927 44.0402 51.5528 40.5166 51.6442C36.5524 51.7471 34.3286 49.4991 34.2926 45.5937C34.245 40.4373 33.4806 34.5099 40.5237 34.4817Z" fill="#241C1C"/>
<path d="M71.1276 44.3783C71.129 46.0726 71.1749 47.9164 71.1215 49.5929C72.17 49.3875 73.9455 49.6478 75.1004 49.6223C76.4922 49.5915 77.9066 49.6685 79.3035 49.5036C79.4897 49.4818 79.7391 49.511 79.8879 49.6446C80.0264 50.0243 79.9958 51.0738 79.9995 51.5164C76.4343 51.5827 72.82 51.4956 69.2193 51.5489C69.0162 47.6435 69.2456 43.5833 69.1604 39.6628C69.1251 38.0365 69.1449 36.3064 69.2335 34.6846C69.8633 34.6724 70.4935 34.6658 71.1235 34.6653L71.1276 44.3783Z" fill="#241C1C"/>
<path d="M21.7643 22.6839C21.9012 22.7251 21.9854 22.773 22.1133 22.8371C22.2073 23.5712 22.2913 25.9522 21.9469 26.5269C21.251 26.2457 21.4473 23.1712 21.7643 22.6839Z" fill="#241C1C"/>
<path d="M58.1631 22.6768C58.8781 22.887 58.7789 26.0194 58.4502 26.4751L58.1874 26.3818C57.7801 25.9481 57.9202 23.2205 58.1631 22.6768Z" fill="#241C1C"/>
<path fill-rule="evenodd" clip-rule="evenodd" d="M38.9877 6.98936C39.2377 6.97984 39.3259 7.06824 39.5275 7.2085C39.78 7.49082 40.2775 8.21628 40.4497 8.35084C40.5767 8.45774 40.708 8.57381 40.8413 8.67143C41.7344 9.5308 41.9271 10.2137 41.3871 11.3924C43.2498 11.3309 45.1176 11.4083 46.9365 11.3487C47.7042 11.3448 49.2154 11.1963 49.8522 11.6987C49.9929 11.8099 50.0474 12.3633 50.0652 12.5601C50.1979 16.5205 49.9983 20.4839 50.1484 24.4451C50.8322 24.4603 53.3751 24.4902 53.8707 24.3842C53.2361 25.2566 52.6623 26.0908 51.4653 26.2763C50.619 26.4073 49.344 26.3776 48.4552 26.3828C46.6196 26.3941 44.7839 26.395 42.9484 26.3849L34.2976 26.3889C32.6652 26.3899 30.9904 26.4371 29.3641 26.3209C28.4971 26.259 27.2618 25.4171 26.9586 24.5831L27.0439 24.4735C28.0183 24.432 29.4136 24.4861 30.4354 24.4776C30.397 24.0101 30.3725 23.5238 30.342 23.0542C30.2869 21.5981 30.1354 12.399 30.5754 11.6835C30.9968 11.0002 37.0909 11.5526 38.2208 11.3254C38.3964 11.1057 38.0301 10.049 38.3222 9.43434C38.6721 8.69821 39.1613 8.93268 39.5173 8.3478C39.4816 8.0019 39.0647 7.57126 38.9279 7.09792L38.9877 6.98936ZM52.4544 25.1096C52.1828 24.9395 39.3158 25.0288 37.8434 25.0315L30.9548 25.0518C30.0848 25.0531 29.1104 24.9998 28.2674 25.0244C28.3909 25.5594 29.159 25.8073 29.6694 25.8167C30.9479 25.8402 32.2216 25.7855 33.5023 25.7954C37.3092 25.8253 41.1167 25.8294 44.9237 25.8066H49.4352C50.3463 25.8069 51.2731 25.9802 52.0182 25.4353C52.2852 25.2962 52.3233 25.3304 52.4544 25.1096ZM32.1154 14.373C31.749 14.3295 31.384 14.5113 31.0329 14.6459C31.1179 15.5005 31.0592 16.704 31.0766 17.591C31.1205 19.8414 31.0188 22.2014 31.109 24.4431C35.3431 24.4066 39.5775 24.3987 43.8118 24.4197C45.5996 24.4194 47.5858 24.46 49.3581 24.3944C49.4368 23.7994 49.4714 20.7714 49.2435 20.2612C48.9165 19.5299 46.4395 19.5665 45.4137 19.2214C43.0878 18.4387 44.0175 17.378 42.8581 15.2546C42.6779 15.1528 42.5428 15.0775 42.3935 14.9766C42.3435 14.9429 42.2917 14.9062 42.2362 14.865C42.0249 14.8653 41.8564 14.8635 41.7107 14.8661C41.4194 14.8712 41.2192 14.8947 40.9498 14.9908C40.8152 15.0389 40.6631 15.1046 40.474 15.1958C40.2814 15.462 40.1567 15.6829 40.0753 15.8998C39.9398 16.2608 39.9232 16.6122 39.9099 17.1487C40.1644 18.74 40.2592 19.3517 38.4348 18.983C38.1164 17.1071 39.2191 16.5095 37.8474 14.4998C36.3349 14.3058 36.1581 15.2669 36.3642 16.5004C36.5536 17.6342 35.8713 18.4883 34.8962 17.6854C34.9026 17.5981 34.8522 17.3258 34.8648 17.1619C34.9046 16.6176 35.0211 16.0696 34.9348 15.5235C34.8604 15.0541 34.4996 14.475 33.9517 14.5871C33.37 15.1124 34.1846 17.4631 32.366 16.4913C31.5963 16.0799 32.8528 14.7722 32.1154 14.373ZM42.5669 12.0508L31.0715 12.0447C31.0726 12.6917 31.0623 13.3388 31.041 13.9855C31.4877 13.8585 32.2551 13.603 32.6359 13.9844C32.7667 14.1156 32.7322 14.247 32.9615 14.374C33.0318 14.3298 33.1033 14.2868 33.1746 14.2442C33.8812 13.8201 34.0537 13.8684 34.7907 14.0524C35.2175 14.499 35.3761 14.8904 35.6013 15.4494C35.8017 14.8021 35.9714 14.2977 36.6391 13.9581C36.9924 13.7765 37.4037 13.743 37.7815 13.8657C38.8386 14.2207 39.054 15.3759 39.2698 16.3056L39.3692 16.3188C39.4484 16.0737 39.4624 16.0016 39.493 15.7477C39.6997 14.7751 40.906 14.2695 41.802 14.2015C42.4335 14.3066 42.87 14.4903 43.2893 15C44.1933 15.606 43.8068 18.0423 45.2402 18.5579C46.6406 19.0615 47.9765 18.9253 49.4048 19.3695C49.3932 16.9305 49.3415 14.5239 49.354 12.0792C47.0974 12.0035 44.8254 12.0503 42.5669 12.0508ZM39.2748 17.3435C39.0555 17.581 38.9833 18.2096 39.1318 18.4919C39.3035 18.5658 39.2355 18.5661 39.3935 18.5173L39.3996 18.0689C39.386 17.8167 39.399 17.5573 39.2748 17.3435ZM39.5944 9.01535C39.1731 9.33917 38.8024 9.61828 38.7747 10.182C38.7328 11.0352 39.3087 11.2886 39.9941 11.3284C40.0693 11.3328 40.1451 11.3362 40.2204 11.3396C40.516 11.2925 40.6978 11.2894 40.8758 11.0474C41.0757 10.7772 41.1584 10.4377 41.104 10.106C40.9664 9.22532 40.3966 8.98928 39.5944 9.01535Z" fill="#241C1C"/>
<path d="M59.3917 18.9048C59.9536 19.1058 59.6752 20.4117 59.5499 20.8152L59.3805 20.732C59.1812 20.4075 59.3104 19.8562 59.2425 19.4851C59.2147 19.3332 59.129 19.0579 59.0853 18.8987C59.1367 18.8972 59.3557 18.8921 59.3917 18.9048Z" fill="#241C1C"/>
<path fill-rule="evenodd" clip-rule="evenodd" d="M22.6378 18.8389C23.6997 18.7975 25.3882 18.7321 24.6344 20.4053C24.4787 20.7503 23.7434 20.8998 23.4038 20.6599C23.1858 20.1614 23.5706 19.4269 23.1583 19.1169L22.9503 19.1564C22.5855 19.5301 22.8944 19.9255 22.7646 20.5392C22.6111 20.7101 22.69 20.6729 22.4735 20.6853C22.1058 20.3477 22.5064 19.5382 22.3051 19.1808C22.019 19.0661 21.2213 19.1682 20.9253 19.2569L20.904 19.3583C21.36 19.7479 21.3838 19.3988 21.809 19.8524C21.8761 20.1195 21.9137 20.1968 21.8242 20.4581C21.4972 20.8816 19.6423 20.7408 19.0556 20.7442C19.0518 20.2794 19.0209 19.492 19.0515 19.053C19.3861 18.9621 19.9235 18.7629 20.2182 18.9302L20.2486 19.0235C19.9469 19.2454 19.5291 18.9716 19.3234 19.3299C19.5894 19.6852 20.0054 19.4638 20.1594 19.8656C19.9729 19.9777 19.8285 19.9549 19.6136 19.9518C19.4048 20.0939 19.4741 20.0172 19.3609 20.2612C19.608 20.6242 20.3323 20.3803 20.7092 20.382C20.9968 20.3832 21.1995 20.5474 21.465 20.3931L21.5564 20.242C21.3403 19.9258 20.8453 20.0115 20.5053 19.6688C20.4178 19.4125 20.4192 19.5206 20.5063 19.2599C21.0201 18.7463 21.8567 18.8694 22.6378 18.8389ZM23.7507 19.0945C23.7424 19.4464 23.6545 20.0607 23.7507 20.315C23.9651 20.4958 24.0482 20.4695 24.329 20.382C24.6595 19.6918 24.7308 19.0953 23.7507 19.0945Z" fill="#241C1C"/>
<path fill-rule="evenodd" clip-rule="evenodd" d="M58.156 18.8531C58.5116 18.9172 58.5579 19.0268 58.788 19.3279C58.8129 19.9999 58.9951 20.6912 58.1123 20.6853C57.8898 20.6838 57.8387 20.6814 57.6315 20.5778C57.4041 20.1888 57.8176 20.0159 57.6984 19.5724L57.5838 19.4293C57.4102 19.4348 57.3132 19.5132 57.1932 19.6464L57.0877 19.9691C57.0124 20.2145 57.0367 20.2839 57.2226 20.6934L57.1719 20.7614L56.2812 20.665C56.5544 20.2594 56.8231 19.8503 57.0867 19.4385L57.0684 19.264L56.9467 19.1666C56.7719 19.226 56.681 19.2607 56.4952 19.2914C56.4871 19.1122 56.521 19.0852 56.618 18.9231C57.0821 18.6939 57.2734 19.2408 57.7268 19.2427C57.8734 19.0743 57.9547 18.9585 58.156 18.8531ZM58.0992 19.0874C58.0833 19.6939 57.799 20.0428 58.2534 20.4875C58.6312 20.0901 58.7262 19.1855 58.0992 19.0874Z" fill="#241C1C"/>
<path d="M60.0288 18.9769C60.4319 18.9783 60.6778 18.9123 60.954 19.2366C61.0586 19.6683 60.7354 20.1119 60.5167 20.5017C60.372 20.6286 60.4532 20.5948 60.2672 20.6153C60.146 20.0664 59.9048 19.495 60.0288 18.9769Z" fill="#241C1C"/>
<path d="M37.3939 0.20429C44.358 -0.852822 51.4518 2.25648 55.4432 8.05156C56.5973 9.72729 58.8923 14.6585 58.4999 16.6486C58.3772 16.8273 58.4396 16.7834 58.2564 16.8758C57.668 16.654 57.2073 13.3765 56.8878 12.4819C54.066 4.58354 45.8642 -0.291186 37.5806 0.893145C36.7752 1.00878 35.9306 1.25386 35.1366 1.46736L34.7024 1.56577C34.528 1.60624 34.3577 1.64867 34.2956 1.67432C33.5676 1.92357 32.8629 2.23746 32.1905 2.61173C31.7452 2.8264 31.244 3.0806 30.7955 3.27421C30.4656 3.5038 29.8104 3.98443 29.4858 4.16901C26.7946 6.14449 24.647 9.16511 23.3916 12.2476C23.023 13.1534 22.551 16.3978 21.9885 16.7561C21.5053 16.692 21.7374 15.7674 21.7948 15.4088C22.6072 10.3289 25.3506 6.39646 29.4391 3.3645L29.6015 3.23667C29.9987 2.94291 30.5217 2.6776 30.9416 2.4484L31.4682 2.1623H31.4702C31.9489 1.78339 33.2601 1.35907 33.8868 1.12344C33.9937 1.06649 34.1103 1.01432 34.2317 0.96619C34.5964 0.8216 35.0083 0.713057 35.3578 0.62024C35.8728 0.354633 36.8187 0.291611 37.3939 0.20429Z" fill="#241C1C"/>
</svg>
