<svg width="82" height="68" viewBox="0 0 82 68" fill="none" xmlns="http://www.w3.org/2000/svg">
<path d="M54.3175 3.07549C54.3996 3.17542 54.4078 3.1896 54.5139 3.26113C54.6337 3.25579 54.7618 3.26038 54.8646 3.33017C53.6576 3.72961 52.9284 4.26542 51.9292 5.01682C52.6898 4.03796 53.2341 3.64541 54.3175 3.07549Z" fill="#241C1C"/>
<path fill-rule="evenodd" clip-rule="evenodd" d="M58.0419 37.3975C59.4702 37.1978 61.4242 37.6581 62.5634 38.5605C63.8256 39.5612 64.4785 41.0425 64.6435 42.6211C64.7596 43.7372 64.7315 44.8509 64.7353 45.9717C64.7234 48.3203 64.9436 50.7784 63.3905 52.7402C62.4174 53.9693 60.9862 54.5498 59.4638 54.7266C56.4064 55.2541 53.1876 53.0381 52.8485 49.9014C52.6533 48.0941 52.8545 46.2585 52.7675 44.4912C52.5794 40.6744 54.0241 37.904 58.0419 37.3975ZM61.1933 40.085C60.5106 39.5605 59.1637 39.2681 58.3183 39.3984C55.0662 39.8158 54.7549 42.0841 54.7694 44.875C54.7879 48.4254 54.1461 52.9774 59.203 52.7393C63.0805 52.1446 62.7315 48.8923 62.7353 45.8428C62.7372 43.8857 62.9235 41.4321 61.1933 40.085Z" fill="#241C1C"/>
<path d="M5.56729 37.3965C6.77126 37.2911 8.31901 37.4967 9.36221 38.125C11.2029 39.2338 11.6488 40.5187 12.1806 42.4131C11.5025 42.4494 10.685 42.4355 9.99503 42.4395C9.56912 41.0998 8.89911 39.9212 7.47745 39.5459C4.26628 38.6986 2.34613 40.7041 2.37003 43.8721C2.33736 44.7551 2.38154 45.7544 2.35635 46.625C2.24651 49.6283 2.41801 52.7681 6.288 52.7686C9.70232 52.7688 10.2192 50.4044 10.2646 47.624C9.54514 47.5971 8.75683 47.6083 8.03116 47.6055L6.37979 47.6123C6.36742 46.9574 6.38766 46.2806 6.39835 45.624C8.37464 45.6513 10.3516 45.6593 12.328 45.6465C12.3362 47.8586 12.5062 50.8507 11.122 52.6709C9.1671 55.2068 4.74521 55.3988 2.30557 53.5244C-0.0178199 51.7392 0.281867 48.9121 0.30655 46.3193C0.329395 43.9192 -0.0240866 41.418 1.57999 39.3896C2.62686 38.066 3.95592 37.6029 5.56729 37.3965Z" fill="#241C1C"/>
<path d="M40.5556 37.3984C41.7433 37.2587 43.3459 37.5397 44.3681 38.1592C45.9902 39.1426 46.7262 40.6705 47.1835 42.4297L44.9501 42.4521C44.5111 40.7085 43.3386 39.487 41.4901 39.3643C39.1751 39.089 37.2232 40.9719 37.3114 43.3164C37.4 45.6731 36.6662 49.756 38.2841 51.6562C39.4867 53.0686 42.6483 53.1257 43.9755 51.8877C45.1011 50.8378 45.1419 49.0551 45.1923 47.626C44.3939 47.6112 43.5953 47.6043 42.7968 47.6055L41.331 47.6162C41.3118 46.9785 41.3342 46.2716 41.3407 45.6289C43.3109 45.6535 45.2817 45.6544 47.2519 45.6318C47.2541 46.3199 47.2377 47.0183 47.2519 47.7061C47.289 49.5056 47.1366 51.2225 46.0087 52.7129C44.1025 55.2316 39.6558 55.3538 37.2597 53.54C35.0527 51.8691 35.2252 48.8462 35.2431 46.3867C35.1528 41.9769 35.2816 38.0401 40.5556 37.3984Z" fill="#241C1C"/>
<path fill-rule="evenodd" clip-rule="evenodd" d="M23.0976 37.3955C26.3577 36.9203 29.4122 39.1577 29.6962 42.4502C29.7845 43.4739 29.7578 44.3395 29.7909 45.3271C29.938 49.713 29.8767 54.0162 24.5146 54.7295C21.067 54.9529 18.3862 53.3015 17.8505 49.6631C17.6773 48.0962 17.8105 46.4257 17.7607 44.8643C17.6335 40.8822 18.8664 37.9496 23.0976 37.3955ZM27.6982 45.9893C27.8337 42.8848 27.7066 38.9599 23.412 39.3984C20.0966 39.798 19.8656 41.9272 19.8769 44.7402C19.89 47.9957 19.1449 53.213 24.2021 52.7373C28.2793 52.1509 27.5652 49.035 27.6982 45.9893Z" fill="#241C1C"/>
<path d="M70.7909 37.5186C71.3977 37.572 72.1819 37.5471 72.8036 37.5439L72.8017 52.6338C75.7696 52.6372 78.7779 52.6635 81.7421 52.627C81.7465 52.9634 81.7918 54.4133 81.6669 54.5986C78.1189 54.5668 74.2883 54.6954 70.7733 54.5771C70.7902 54.231 70.7767 53.8612 70.7792 53.5117C70.8173 48.1834 70.7303 42.8458 70.7909 37.5186Z" fill="#241C1C"/>
<path fill-rule="evenodd" clip-rule="evenodd" d="M54.9804 5.80078C54.9148 5.963 54.7285 6.06193 54.5683 6.18262C53.9052 6.66844 53.3246 7.16545 52.6923 7.6875C49.5722 10.2031 45.6873 14.1766 43.1503 17.2363C42.5616 17.9455 41.9963 18.6743 41.456 19.4209C41.3118 19.6237 40.5685 20.7026 40.3095 21.042L40.2314 21.1377C39.1991 22.8856 37.9496 24.6343 37.0692 26.4883C37.3058 26.3594 37.6244 26.1689 37.8749 26.0977L38.206 25.9775C39.8366 25.4345 41.0248 25.7528 41.579 27.6143C41.8481 26.2635 41.554 25.6057 40.6317 24.6143C41.2182 24.817 41.8056 25.0157 42.3769 25.2627C42.6278 25.3713 42.9523 25.7112 43.1103 25.7129C43.0179 25.3102 41.9947 24.2482 41.6376 23.9355C42.6522 24.4603 43.683 25.3097 43.8857 26.5029L43.8222 26.5869C43.5757 26.516 42.0084 25.5026 41.7265 25.3057C42.4084 26.695 41.8171 28.3096 41.787 30.0322C41.3524 28.5115 41.0406 25.473 38.5937 26.2061L38.123 26.3594C37.1228 26.8984 36.2833 27.8196 35.8857 28.8896C35.7046 29.3766 36.5537 29.9619 35.4599 30.5293C35.1337 30.7 35.4467 31.873 35.538 32.1816C35.1911 32.5336 33.6186 34.0393 33.2685 34.2402C33.2322 33.889 34.3012 32.048 34.2997 31.6963L34.2099 31.6445C33.4878 31.8782 33.4191 33.5595 32.8642 34.1533C32.7482 33.6745 32.7606 32.0341 32.7128 31.3975C33.0838 30.9856 33.7066 30.5599 34.163 30.2051C33.6631 28.6473 34.5411 29.4041 35.0155 28.5293C36.1053 26.5186 37.1253 24.4873 38.4413 22.6064C38.778 22.1251 39.1671 21.4455 39.5878 21.0498C42.3808 17.0035 46.407 12.9354 50.0771 9.6543C50.88 8.93642 51.857 8.08469 52.7138 7.45312C52.9769 7.13867 54.0844 6.3382 54.4521 6.06934C54.628 5.94868 54.7773 5.81167 54.9804 5.80078Z" fill="#241C1C"/>
<path d="M30.8222 11.2119C34.8296 9.25029 38.7719 8.81158 43.1581 9.21289C42.8282 9.84378 42.5421 10.1088 42.2304 10.6299C41.0481 10.6947 39.8358 10.5933 38.6591 10.6816C31.1224 11.2478 24.1969 15.9389 20.9149 22.7598C20.7093 23.1872 20.5095 23.6238 20.3017 24.0518C19.6824 25.5564 18.8654 28.3887 18.8612 30.1299L18.872 30.4629L18.8476 30.9062C18.8022 31.9482 18.8222 33.0436 18.7821 34.0898C18.6019 33.7916 18.576 30.649 18.6239 30.1182L18.623 29.7305C18.6565 27.759 19.224 25.3093 19.8505 23.5029C21.7425 18.1186 25.6862 13.7004 30.8222 11.2119Z" fill="#241C1C"/>
<path d="M53.5565 13.5068C56.0178 15.4002 58.0618 17.7813 59.5605 20.501C59.7002 20.7562 60.2188 21.8104 60.2245 22.0361C60.9346 23.3562 61.5867 25.9039 61.8739 27.6289L61.9735 28.3125L62.0292 28.9062C62.1499 30.35 62.1952 32.161 61.8993 33.4707C61.8976 33.4906 61.8962 33.5104 61.8944 33.5303C61.9151 31.6356 61.9174 30.541 61.6728 28.6396L61.5966 28.1494C61.1803 25.7006 60.2012 23.3254 58.9618 21.1934C57.6523 19.2452 56.3549 17.4028 54.5107 15.9092C54.2392 15.6894 53.0452 14.7993 52.9472 14.6348L53.2382 14.3262L53.2304 14.2275L52.9921 14.1465C52.9502 13.9032 53.3709 13.6603 53.5565 13.5068Z" fill="#241C1C"/>
<path d="M34.4159 19.5244C34.5814 19.496 34.7104 19.5876 34.87 19.666L34.9394 19.7236C35.2825 20.2051 35.9885 20.5704 36.3163 21.0205C36.6077 21.4212 36.6216 22.3306 36.6562 22.8555C36.3479 22.437 36.2135 22.2146 35.7538 21.9541C35.4616 21.7586 35.1966 21.656 34.8476 21.6094L34.8007 21.6738C35.0227 21.9792 35.2252 22.0248 35.4579 22.2764C36.5942 23.5159 36.6597 24.8732 35.9853 26.3486C36.0328 25.8891 36.1252 25.3288 36.0517 24.877C35.773 23.1685 34.8048 22.1705 33.0898 22.5596C32.9424 22.6999 32.7097 22.8227 32.5292 22.9287C32.3658 23.2784 32.2636 23.8392 32.1776 24.2324C32.0924 23.4985 32.043 23.1513 32.3788 22.4766L32.456 22.3389C32.6452 22.0237 32.8984 21.7511 33.2001 21.5391C33.7475 21.1476 34.4629 20.946 35.1298 21.0742C35.3915 21.1246 35.5864 21.2216 35.87 21.2666L35.9032 21.1855C35.721 20.6381 34.4177 19.901 34.4159 19.5244Z" fill="#241C1C"/>
<path d="M50.455 15.7969C50.3155 16.0867 49.8319 16.2731 49.6132 16.543C48.082 18.4329 46.6398 20.581 44.2148 21.4277L43.748 21.5859C43.2953 21.6364 43.114 21.7055 42.6855 21.8477L43.8983 21.8867C44.1257 21.8843 44.2988 21.8533 44.5224 21.8184C45.8662 21.6336 46.7931 21.2576 47.8564 20.4473C46.952 21.6251 45.7037 22.5933 44.1933 22.7998L44.0194 22.8184L43.7187 22.8564C43.3927 22.8957 43.0146 22.9471 42.8105 23.0859C43.6062 23.5775 44.5433 23.9151 45.2187 24.3516C43.8284 24.0384 42.3528 23.7227 41.2167 22.8809C41.6993 22.8868 42.0972 22.8355 42.5771 22.7812C42.6701 22.7341 43.122 22.6226 43.2499 22.5889C43.4717 22.5409 43.73 22.4996 43.9247 22.3906C43.8529 22.3312 43.7776 22.3053 43.6942 22.29L43.414 22.2539C43.3371 22.2559 43.2467 22.2545 43.1493 22.25C43.052 22.2456 42.9476 22.2385 42.8427 22.2305C42.6325 22.2144 42.4202 22.1936 42.2577 22.1807C41.8832 22.1994 41.4247 22.0979 41.0497 22.0303C44.3039 21.1653 45.9215 19.738 47.9023 17.2666L48.3036 16.7578C48.1481 16.7403 46.6381 17.1488 46.2567 17.1963C46.8217 16.9473 47.4113 16.7359 47.9911 16.5225C48.5443 16.3048 49.811 15.7548 50.3564 15.7471L50.455 15.7969Z" fill="#241C1C"/>
<path d="M35.4345 17.4336C36.3331 19.0352 36.5078 19.1681 36.912 20.9258C36.27 20.184 35.952 19.8568 34.9394 19.7236L34.87 19.666C35.5683 19.546 35.9361 19.7255 36.5155 20.0635C36.2104 19.3421 35.6028 18.117 35.4345 17.4336Z" fill="#241C1C"/>
<path d="M37.1064 13.75C37.1214 14.8366 37.3668 15.4809 37.6024 16.3926L37.7021 16.8027L37.6464 16.9453C37.3579 16.7479 37.149 15.2198 36.9423 15.0869C36.6661 15.4906 37.4075 17.3651 37.6444 17.75L37.5204 17.8809C37.4311 17.7988 37.2136 17.5184 37.1259 17.4102C37.0436 17.5431 37.1998 17.7598 37.1923 18.0059C37.1757 18.5474 37.0753 19.0882 36.9862 19.6191C36.9264 19.1233 36.9579 18.547 36.912 18.0322C36.8156 16.9511 36.5087 15.8454 36.831 14.7793C36.9335 14.44 37.0192 14.0946 37.1064 13.75Z" fill="#241C1C"/>
<path d="M44.1376 9.61523C43.8439 11.127 43.7316 11.2865 42.9804 12.6357C43.0314 12.4456 43.1723 12.0171 43.1376 11.8496C42.8311 11.9001 41.5877 13.126 41.2567 13.4199C40.6932 13.9203 40.007 14.4338 39.4706 14.9453C39.232 15.1744 39.0141 15.4242 38.8192 15.6914C37.8976 16.969 37.8999 18.1121 38.0107 19.5967C37.8514 19.0237 37.6881 18.4514 37.5204 17.8809L37.6444 17.75C37.7152 17.512 37.7524 17.1852 37.8407 16.8799C38.6464 14.3823 40.318 13.5101 42.0614 11.6602C42.8556 10.8174 43.2686 10.2177 43.8593 9.25586L44.4833 8.03711L44.1376 9.61523Z" fill="#241C1C"/>
<path d="M57.0937 8.2207C55.7465 9.56582 54.9275 11.1358 53.6669 12.5508C52.5473 13.8075 51.1111 14.1375 49.6728 14.8789C49.7559 14.8743 52.2628 14.638 52.1493 14.6885C52.2311 14.6928 51.1351 14.9676 51.1708 14.9541C50.0373 15.3633 48.9463 15.7932 47.7216 15.498C47.5159 15.4517 47.181 15.3585 47.0409 15.209C47.2038 15.1053 48.6514 14.8287 49.0048 14.6973C50.968 13.9673 53.0878 12.0806 54.1698 10.3604C54.0075 10.3964 53.5918 10.5 53.4462 10.499L53.2519 10.54C52.7705 10.6146 52.1061 10.5528 51.6737 10.5078C51.9913 10.4598 52.3108 10.4218 52.6308 10.3945C54.0512 10.037 54.5425 9.66648 55.7841 8.91504C56.2009 8.66273 56.6358 8.38183 57.0937 8.2207Z" fill="#241C1C"/>
<path d="M51.5487 3.36523C51.7617 4.72101 50.2202 6.66171 49.6171 7.75391C49.2868 8.35201 49.0232 9.15184 48.7948 9.80664C48.9083 8.79064 49.0568 8.5218 49.4355 7.58105C48.8028 8.22198 48.4268 8.87398 48.2138 9.74902L48.1415 9.71484L48.121 9.51074C47.8305 8.08833 48.3073 7.57937 48.8896 6.5C47.5217 7.38586 46.5514 8.25913 45.6054 9.56055C44.9609 10.7069 44.4747 11.881 43.8241 13.0059C43.6004 13.4734 43.2029 13.8853 42.8261 14.2305C42.9829 13.938 43.5002 13.2083 43.706 12.9199C44.1293 12.1335 44.752 10.2708 45.1698 9.31641C46.3969 6.25898 49.2576 6.09729 50.537 3.77148C50.2857 5.77817 49.4332 5.93499 48.6952 7.53809C48.5768 7.82065 48.3705 8.25263 48.413 8.55273C48.6223 8.17014 48.8259 7.90698 49.1327 7.60254C50.5337 5.88528 51.0351 5.51812 51.4804 3.35547L51.5487 3.36523Z" fill="#241C1C"/>
<path d="M61.5273 0.209961C60.2894 2.99026 57.3982 7.60264 54.5536 8.90039C55.8822 7.75858 56.4929 6.72375 57.3661 5.2207C57.8545 4.38023 58.4229 3.55648 58.8808 2.69727C57.134 2.75927 56.5539 2.89576 54.8642 3.33008C54.7615 3.26049 54.6333 3.2554 54.5136 3.26074C54.4079 3.18944 54.3994 3.175 54.3173 3.0752C56.2974 1.95024 58.9499 1.94776 60.9345 0.78125C61.0986 0.684764 61.3874 0.363684 61.5273 0.209961Z" fill="#241C1C"/>
</svg>
