<svg width="80" height="80" viewBox="0 0 80 80" fill="none" xmlns="http://www.w3.org/2000/svg">
<path d="M53.9929 40.5181C54.3506 40.4919 54.7379 40.4575 55.0792 40.5596C56.676 41.0372 56.9735 43.0401 55.6458 43.9833C54.4794 44.812 53.2852 45.5247 52.0798 46.2525C50.2427 47.3616 48.4438 48.6002 46.5595 49.5973C46.913 54.2186 45.7219 55.545 41.7152 57.6487C42.0061 57.7918 42.2953 57.9382 42.5827 58.0881C43.0533 58.3312 43.493 58.6297 43.8928 58.9771C44.8237 59.7805 45.6786 60.8624 46.5899 61.7385C47.1381 62.2654 49.3655 63.5991 48.7573 64.4111C47.7234 65.7915 45.4849 66.5832 43.9183 67.2409C43.5897 67.3789 42.4729 67.2537 42.0863 67.4327C41.4755 67.6617 40.9108 68.0557 40.3772 68.202L40.3261 68.2156C39.7243 68.379 39.0302 68.1801 38.4324 68.28C36.1371 68.6634 33.9313 69.1538 31.5857 69.0305C31.0491 69.0024 30.4216 68.9841 29.8854 68.9882C29.3679 68.9921 28.7319 69.4046 28.174 69.2934C26.8477 69.1663 25.5071 68.5407 24.2716 68.3138C23.8419 68.2349 22.2748 68.561 21.6336 68.6034C20.7201 68.3962 20.0471 67.5485 19.192 67.1795C18.7213 66.9765 18.1623 66.9192 17.6598 66.8411C16.4463 66.6522 15.3956 66.2842 14.3987 65.544C13.9524 65.2126 13.4379 64.6585 13.3881 64.0723C13.2827 62.8294 17.0979 59.8264 18.0622 58.8181C18.5345 58.3244 18.8904 57.6872 19.3106 57.1452C20.2981 55.8719 21.5781 55.5261 22.7028 54.5137C23.5013 53.7948 24.0748 52.8288 24.7826 52.0219C25.9707 50.6674 28.6385 48.5658 30.4587 48.3582C32.0271 48.1793 33.1967 49.4422 34.3254 50.3292C37.7467 47.9854 40.2365 44.9388 44.6151 46.9449C46.6179 45.7396 48.4176 44.2554 50.3248 42.9271C51.2015 42.3164 53.1537 40.7788 53.9929 40.5181ZM38.3576 54.9144C38.4441 55.2041 38.3754 55.1067 38.6118 55.285C39.332 55.4321 40.1122 54.5353 40.7233 54.1167C42.3674 52.9903 44.3225 52.2828 44.7412 50.1205L44.7487 50.0817C44.3139 48.6342 43.4884 47.8076 41.936 47.727C39.608 47.8066 37.2957 50.0487 35.3652 51.2161C35.6907 51.5392 35.9765 51.7832 36.3167 52.0832C37.1083 52.7811 39.5549 53.6264 38.3576 54.9144Z" fill="#241C1C"/>
<path d="M9.17014 34.9559C10.6934 34.8008 13.5274 38.497 14.1199 39.7859C15.1164 41.9534 15.434 44.293 17.0405 46.1887C17.6263 46.8802 18.1603 47.6233 18.847 48.239C19.2475 48.6566 20.573 49.3317 20.6776 49.7928C20.6296 50.5668 19.484 50.7038 18.8625 50.8249C12.6048 51.644 6.59553 44.2077 7.44477 38.2599C7.66208 36.7378 7.91673 35.9076 9.17014 34.9559Z" fill="#241C1C"/>
<path d="M13.149 32.5391C18.2777 31.9895 22.9259 37.1246 23.9457 41.7414C24.328 43.4722 24.5685 47.9949 22.2584 48.4749C22.1955 48.4472 22.1335 48.4175 22.0724 48.386C20.1525 47.387 18.0442 45.1024 17.3497 43.1145C16.3699 40.3102 15.5931 37.813 13.306 35.7321C12.8712 35.3365 11.3177 34.2048 11.1212 33.721C10.7917 32.9094 12.7304 32.6007 13.149 32.5391Z" fill="#241C1C"/>
<path d="M40.3128 24.0959C41.6372 23.8575 42.8971 24.0303 43.8814 24.9925C42.3322 26.5781 41.1728 26.9412 39.8314 29.138C38.7242 30.9512 38.7397 31.3979 38.0793 33.4253C37.5437 35.0698 36.2357 36.6259 34.9276 37.7327C34.635 37.9992 34.2557 38.1791 33.9049 38.3674C32.5448 37.7773 32.2611 36.7096 32.0706 35.3368C31.4149 30.6104 35.4165 24.6434 40.3128 24.0959Z" fill="#241C1C"/>
<path d="M44.9688 26.194C46.4782 26.1735 46.947 29.068 46.8829 30.2067C46.6031 35.1776 42.5802 40.4066 37.2818 40.2803C36.7086 40.2062 35.2564 40.1066 35.3215 39.3113C35.4999 39.0995 35.6976 38.9091 35.9186 38.7511C37.3219 37.7381 38.9734 35.853 39.4942 34.1464C40.483 30.9062 41.7642 27.9583 44.9688 26.194Z" fill="#241C1C"/>
<path d="M36.4379 11.0072C37.0819 10.9683 37.2672 11.085 37.8093 11.4104C36.8363 12.5188 35.7865 13.7101 35.6035 15.2248C35.4357 16.6143 34.8072 19.0033 33.3695 19.6367C31.5427 19.1235 31.8709 15.7546 32.4871 14.4142C33.3316 12.5768 34.4315 11.4587 36.4379 11.0072Z" fill="#241C1C"/>
<path d="M38.633 11.8365C38.7923 11.8317 39.0231 11.973 39.1201 12.0776C40.6672 13.7457 39.9656 17.0088 38.619 18.5723C37.8529 19.4619 36.8491 20.2261 35.8346 20.3276C35.4517 20.3765 34.5338 20.4521 34.3193 20.0878C34.3555 19.8544 34.3914 19.8913 34.5798 19.6945C35.0806 19.1797 35.4968 18.5891 35.8134 17.9445C36.2943 16.9633 36.317 16.1566 36.5431 15.1251C36.8266 13.832 37.592 12.6442 38.633 11.8365Z" fill="#241C1C"/>
<path d="M20.4353 16.4712C25.8309 15.843 29.426 24.4229 26.0665 28.6525C24.9432 29.8744 24.3343 29.8646 23.6418 28.387C23.2301 27.5085 22.665 26.4547 22.4876 25.4983C22.2841 24.4017 22.3835 23.151 22.2554 22.0355C22.1141 20.9864 21.6704 19.4949 21.171 18.5733C20.8524 17.9854 20.4133 17.5916 20.1599 16.9293C20.1935 16.6408 20.1913 16.7205 20.4353 16.4712Z" fill="#241C1C"/>
<path d="M18.4149 17.313C19.9613 17.237 20.8983 21.6091 20.9546 22.7739C21.0629 25.0172 21.1645 27.0296 22.5359 28.8989C23.8806 30.7319 22.307 30.4452 20.9979 30.2319C20.9335 30.21 20.8694 30.1877 20.8053 30.1649C18.8822 29.4773 17.771 28.1475 16.8688 26.3594C15.5794 23.8039 15.3773 18.7332 18.4149 17.313Z" fill="#241C1C"/>
<path d="M61.5163 25.9526C61.8674 26.1016 62.0053 26.8663 62 27.2021C61.9477 30.4634 57.9402 33.0741 54.9173 31.9966C53.8578 31.5852 53.8046 31.0664 54.5488 30.286C55.9143 28.8544 57.6105 28.7198 59.3023 27.9547C59.9899 27.6437 60.9588 26.5274 61.5163 25.9526Z" fill="#241C1C"/>
<path d="M58.0348 24.1394C58.4045 24.0991 58.7766 24.086 59.1483 24.1004C59.9936 24.1384 60.4789 24.4343 61.0208 25.0337C60.6363 26.0443 59.1867 27.18 58.1859 27.4562C56.6836 27.8708 56.1191 28.0213 54.7953 28.9525C54.3481 29.3169 54.0315 29.754 53.5804 30.0916C53.4555 30.1851 53.3999 30.1505 53.2729 30.1205C53.0779 29.9528 53.0304 29.6858 53.0112 29.4392C52.8035 26.7668 55.5179 24.381 58.0348 24.1394Z" fill="#241C1C"/>
<path d="M58.3549 10.4771C58.8229 10.6757 59.0068 11.6953 58.9997 12.1431C58.9301 16.4914 53.5867 19.9723 49.5562 18.5356C48.1434 17.9871 48.0725 17.2954 49.0649 16.2549C50.8854 14.3461 53.1471 14.1665 55.4028 13.1464C56.3197 12.7318 57.6115 11.2434 58.3549 10.4771Z" fill="#241C1C"/>
<path d="M53.713 8.05956C54.206 8.00581 54.7022 7.98836 55.1977 8.00753C56.3247 8.05828 56.9719 8.45283 57.6945 9.252C57.1817 10.5994 55.249 12.1138 53.9146 12.482C51.9115 13.0348 51.1588 13.2354 49.3937 14.477C48.7974 14.9629 48.3753 15.5457 47.7738 15.9958C47.6073 16.1204 47.5332 16.0744 47.3639 16.0344C47.1038 15.8107 47.0405 15.4547 47.015 15.126C46.7381 11.5628 50.3572 8.38163 53.713 8.05956Z" fill="#241C1C"/>
<path d="M68.0422 43.0348C68.1116 43.0257 68.1812 43.0184 68.2511 43.013C70.2631 42.8661 74.3924 43.9655 75.296 46.2284C75.5914 46.9682 75.7095 49.3419 75.8372 50.3115L76.6153 56.2275C76.728 57.135 77.227 59.1597 76.557 59.7732C75.1396 61.0714 71.7552 61.5165 69.9358 61.5985C67.2293 61.6167 63.5756 61.5056 61.275 59.8606C60.9649 59.6389 60.9102 59.6031 60.8641 59.2053C60.7363 58.1043 61.0098 56.7705 61.1634 55.6631L61.826 50.9745C61.9815 49.8162 62.1781 46.3963 62.8237 45.5279C63.7711 44.2535 66.4692 43.1943 68.0422 43.0348ZM71.0309 48.0201C71.2152 47.8689 71.3181 47.8201 71.3673 47.5926C71.2583 47.429 71.1327 47.3463 70.9312 47.3424C68.8719 47.3032 66.9788 47.441 65.0169 46.5987C64.829 46.518 64.1637 46.2459 63.9857 46.2134C63.8353 46.4626 63.7545 46.5574 63.7628 46.848C64.2787 48.3107 69.6633 48.4428 71.0309 48.0201Z" fill="#241C1C"/>
<path d="M77.7852 57.7384C79.4915 58.2949 80.4672 60.4454 78.8548 61.7125C74.6464 65.0195 61.6626 65.0682 58.2026 61.0085C57.4861 59.3212 58.7944 58.34 60.1817 57.7163C59.6207 59.5874 60.0099 60.3272 61.9058 61.2508C65.2553 62.8827 75.9806 63.3786 77.8361 59.3611C77.7812 58.737 77.7423 58.3588 77.7852 57.7384Z" fill="#241C1C"/>
<path d="M41.9627 69.873C43.5579 69.7727 44.4537 70.9963 45.4154 72.0461C45.5626 72.0525 45.7098 72.0634 45.8564 72.0791C46.8318 72.1795 47.7254 72.6694 48.3346 73.4378C50.2231 75.8494 45.9895 76.054 44.5602 75.8382C43.5568 75.6025 43.2862 75.4276 42.6308 74.6852C41.4975 74.6997 38.1607 74.8583 37.6315 73.6479C37.5721 73.0829 38.0062 72.6175 38.3896 72.2496C39.4443 71.2373 40.4466 70.0529 41.9627 69.873Z" fill="#241C1C"/>
<path d="M47.3133 67.4068C48.5537 67.2709 50.2597 68.0533 50.6373 69.3727C50.9208 70.3633 49.4395 70.5152 48.7433 70.6035C48.0801 70.6575 46.9187 70.7209 46.3236 70.4665C44.3141 69.6077 46.1978 67.8992 47.3133 67.4068Z" fill="#241C1C"/>
<path d="M12.4678 66.8403C13.3455 66.7983 14.193 67.2082 14.5797 68.1162C14.6499 68.2809 14.5236 68.441 14.4288 68.5685C14.161 68.7376 13.838 68.7324 13.52 68.7561C12.8429 68.7487 11.8728 68.8182 11.3423 68.4257C11.0064 67.8103 11.9926 67.1228 12.4678 66.8403Z" fill="#241C1C"/>
<path d="M23.4191 69.9345C24.086 69.8827 24.3329 69.9213 24.8807 70.3365C25.2675 70.6298 25.6384 71.1365 25.191 71.5548C24.9957 71.7373 24.3951 71.6957 24.1335 71.6962C23.4266 71.6826 22.917 71.7703 22.3625 71.3721C21.9781 70.69 22.904 70.2278 23.4191 69.9345Z" fill="#241C1C"/>
<path d="M51.2932 71.0469C52.0008 70.9765 52.7208 71.0124 53.1021 71.7335C53.1466 72.3192 52.7586 72.4372 52.2602 72.5612C51.6448 72.6448 50.8597 72.5993 50.4696 72.0516C50.3834 71.4775 50.837 71.2679 51.2932 71.0469Z" fill="#241C1C"/>
<path d="M17.88 68.3503C18.6012 68.3097 19.6427 68.735 19.2609 69.7219C19.1712 69.9542 18.6958 69.9841 18.4486 70.0194C17.8453 69.9888 17.2663 70.0382 16.9214 69.4607C16.898 68.9322 17.4134 68.5095 17.88 68.3503Z" fill="#241C1C"/>
<path d="M14.3367 69.9935C14.9969 69.9113 15.9564 70.3622 15.7376 71.1246C15.5941 71.375 15.3613 71.4099 15.0811 71.4993C14.5051 71.5129 13.697 71.5967 13.5681 70.874C13.6735 70.442 13.9843 70.2476 14.3367 69.9935Z" fill="#241C1C"/>
<path d="M20.4141 71.9941C21.099 72.1003 21.8376 72.4167 21.3549 73.2253C21.1303 73.4193 20.9068 73.3828 20.6052 73.3824C20.0599 73.3533 19.3178 73.3882 19.4202 72.6224C19.6963 72.1909 19.927 72.1061 20.4141 71.9941Z" fill="#241C1C"/>
</svg>
