<svg width="80" height="80" viewBox="0 0 80 80" fill="none" xmlns="http://www.w3.org/2000/svg">
<path d="M15.7166 51.6167L40.5607 51.6317L49.7765 51.6082C50.9893 51.6075 52.2184 51.5982 53.4332 51.5779C53.6676 51.574 53.7906 51.6124 53.9318 51.7647C54.0759 52.3842 54.1262 53.8227 53.9369 54.4277C53.6134 54.6367 50.6844 54.5551 50.1069 54.556C50.2082 56.0238 50.1294 58.5181 50.1297 60.0717C50.115 64.2034 50.1238 68.3351 50.156 72.4667C48.6265 72.5445 46.0989 72.4506 44.484 72.4437L21.8746 72.4359C18.068 72.4397 13.5565 72.5556 9.83393 72.4253C9.75612 71.6621 9.78579 70.4127 9.78668 69.6219L9.78992 64.9819L9.78676 58.5662C9.78789 57.2779 9.75426 55.8107 9.85177 54.5372C8.5283 54.5456 7.13514 54.5113 5.79547 54.513C5.78266 53.9293 5.68288 52.21 5.90181 51.7613C6.57837 51.5 14.4191 51.63 15.7166 51.6167Z" fill="#241C1C"/>
<path d="M26.5791 30.8369C27.2137 30.865 27.789 30.8915 28.4171 31.0026C30.9688 31.4537 32.7215 34.0838 34.2907 35.9479C34.9168 36.6917 35.9833 37.9983 36.5159 38.7937C37.6553 38.0629 39.16 37.5299 40.3924 36.9213C41.3988 36.4243 42.7454 35.5176 43.8622 35.658C45.7903 35.9002 46.4105 38.726 44.7047 39.6965C42.1269 41.1574 39.3795 42.4745 36.6627 43.6585C34.692 44.5172 32.8649 41.7718 31.7221 40.6015C31.1173 39.9821 30.3729 39.1744 29.8746 38.4786C30.0063 41.2461 29.7757 44.1471 29.8986 46.9329C29.9454 47.9948 29.9555 49.1931 29.8574 50.2488L23.3677 50.2609C21.2658 50.2513 18.4175 50.1933 16.3603 50.302C16.4096 47.859 16.3709 45.4011 16.3932 42.9567C16.4011 42.0983 16.3953 41.2124 16.3384 40.3563C15.9587 41.423 15.6858 43.2127 15.4654 44.3953C15.0909 46.4048 14.6655 48.2505 14.2205 50.2335C12.7374 50.2759 11.1062 50.3004 9.62817 50.2166C10.1913 47.4282 10.5424 44.5601 11.0917 41.7866C11.7435 38.4952 11.7776 34.4327 14.764 32.2911C16.0648 31.3583 19.8103 30.1329 20.9913 31.4046C21.6569 32.1213 22.9305 34.2689 23.5744 35.211C24.231 34.3357 25.8389 31.2543 26.5791 30.8369Z" fill="#241C1C"/>
<path d="M60.1331 39.9395C61.413 39.9501 62.5088 40.3483 63.4215 41.2597C63.9339 41.7714 64.2447 42.3668 64.5199 43.0261C65.109 44.4373 65.4343 45.9966 65.8316 47.4724C66.5986 50.3222 67.6871 53.4078 67.6926 56.3795C67.6946 57.4585 67.3922 58.4005 66.6072 59.1719C66.0799 59.6902 65.4589 60.0182 64.7454 60.203C63.072 60.6364 57.8848 60.5051 55.8883 60.4794C55.9568 61.0142 55.9343 61.591 55.9127 62.1299C55.7985 64.9764 56.0025 67.8514 55.7807 70.688C55.6201 72.926 52.1152 73.0441 51.738 70.8797C51.5355 69.7168 51.6175 68.205 51.617 67.0157L51.6196 60.4323C51.6301 59.4441 51.4845 57.8853 52.1592 57.1076C53.1827 55.9278 57.6232 55.9412 59.2746 55.8161C59.187 55.5633 59.0775 55.2637 59.0137 55.008C58.3509 52.3497 57.5069 49.7239 56.8496 47.0646C56.3622 47.6756 54.0508 49.999 53.2677 50.0936C50.2778 50.4381 47.2745 50.2276 44.2496 50.2344C42.5503 50.2382 41.8344 48.7858 42.6465 47.3458C43.1536 46.4468 45.1204 46.6652 46.0656 46.629C47.8049 46.5624 49.8085 46.7953 51.5564 46.5474C52.959 45.6126 54.6975 43.1395 56.146 41.9903C57.6651 40.7851 57.9936 40.0686 60.1331 39.9395Z" fill="#241C1C"/>
<path d="M59.7462 7.65312C62.0226 7.5531 62.1969 7.39463 62.5568 9.2875C62.656 9.80933 63.7487 10.1348 64.2719 10.3013C64.7089 10.0777 65.4562 9.54031 65.962 9.243C66.083 9.32025 66.202 9.40049 66.319 9.48374C67.9638 10.6581 68.0426 11.2383 66.8678 12.7814C67.0573 13.3417 67.2568 13.7954 67.4401 14.393C69.1274 14.9463 69.7145 14.4021 69.5647 16.679C69.4822 17.9347 68.6422 17.7399 67.7028 17.9809C67.2621 18.0939 66.9502 19.3864 66.8433 19.7369C68.1651 21.5594 67.9034 21.8256 66.0039 23.0893C65.435 22.8871 64.8389 22.4565 64.3273 22.1177C63.7556 22.2883 63.1841 22.4632 62.6798 22.7883C62.5068 23.3284 62.3057 24.4666 62.0047 24.8489C61.2399 24.8746 60.3631 24.8395 59.5902 24.8263C58.9509 23.0893 59.662 22.6774 57.3805 22.1625C56.467 22.7055 55.9934 23.4809 55.0015 22.5566C54.6019 22.1843 54.2191 21.8841 54.0401 21.3353C54.0643 20.7382 54.597 20.1282 54.9501 19.6345C54.7137 19.026 54.5496 18.661 54.2478 18.0824C53.5675 17.846 53.1132 17.7455 52.4086 17.6064C52.3231 17.0479 52.2185 15.7032 52.3913 15.1645C52.5863 14.5566 53.3319 14.7716 53.8455 14.5423C54.5483 14.2285 54.7187 13.5402 54.9875 12.8623C54.5968 12.2093 54.1692 11.8075 53.9301 11.1136C54.9542 9.24536 55.695 8.86335 57.3129 10.2991C60.2807 9.38339 58.5357 9.05042 59.7462 7.65312ZM61.4248 19.7988C63.3836 19.4942 64.7334 17.6712 64.4533 15.7087C64.1731 13.7462 62.367 12.3738 60.4012 12.6296C59.1076 12.7978 58.0045 13.6489 57.5135 14.8574C57.0224 16.0659 57.2193 17.4452 58.029 18.468C58.8385 19.4909 60.1357 19.9992 61.4248 19.7988Z" fill="#241C1C"/>
<path d="M41.4951 5.7373C46.1814 5.74535 49.4479 9.3899 48.816 14.07C48.4687 16.6424 46.8908 17.7664 45.7829 19.977C45.3832 20.7744 45.1384 22.0717 45.0323 22.9618C44.1072 23.2078 43.2741 23.072 42.3068 23.0398C41.6624 23.0395 38.9362 23.2157 38.5412 22.8788C38.1987 22.5867 38.0036 20.5655 37.7432 20.0191C36.5534 17.6256 34.8453 16.4 34.6331 13.5713C34.3139 9.31428 37.1801 6.00757 41.4951 5.7373ZM37.3985 12.8115C37.8331 11.2296 38.0921 10.2217 39.5923 9.25932C40.1714 8.88785 42.5703 8.62831 42.0476 7.82231C41.421 7.4809 41.2505 7.53229 40.5483 7.59162C39.0379 8.07285 37.7379 8.90828 36.9983 10.346C36.6343 11.0537 35.9939 12.8325 36.9428 13.2787C37.2394 13.2074 37.3166 13.1278 37.3985 12.8115Z" fill="#241C1C"/>
<path d="M23.1512 17.6418C23.573 17.5458 24.6542 17.7168 25.0737 17.8483C29.476 19.2287 30.0473 25.5036 26.7176 28.3001C25.8013 29.0697 25.2991 29.2088 24.1759 29.4455C22.8504 29.5445 21.6528 29.3409 20.561 28.535C17.3327 26.152 17.331 20.3036 20.9381 18.2607C21.6559 17.8541 22.3539 17.7613 23.1512 17.6418Z" fill="#241C1C"/>
<path d="M55.5727 29.8029C58.1887 29.3324 60.6908 31.0713 61.1619 33.6871C61.633 36.3029 59.8947 38.8054 57.279 39.2772C54.6625 39.7491 52.1589 38.0101 51.6876 35.3934C51.2164 32.7767 52.956 30.2735 55.5727 29.8029Z" fill="#241C1C"/>
<path d="M71.2162 44.7881C73.2535 44.6997 72.4918 47.0412 72.3094 48.3352L71.6867 52.6366C71.2571 55.5165 71.2041 59.5851 69.2742 61.843C67.4961 63.9232 64.925 63.7861 62.4251 63.7706L58.4234 63.7401C56.6362 63.6115 56.5854 61.6446 58.1587 61.431C60.4949 61.1139 63.5257 61.7294 65.7937 61.1763C68.7096 60.465 68.6953 55.9912 69.0355 53.5449L69.821 48.0757C69.9923 46.8853 69.9189 45.1829 71.2162 44.7881Z" fill="#241C1C"/>
<path d="M38.6183 24.0298C39.9165 23.9587 43.5384 23.9413 44.7838 24.06C44.9582 24.6473 45.0668 25.9787 44.8745 26.5841C44.6733 27.2176 44.417 27.3158 43.8739 27.607C43.1428 28.1841 42.3579 28.8368 41.3563 28.6276C41.1303 28.5791 40.9125 28.4981 40.7096 28.3873C40.3978 28.2183 38.7029 27.0835 38.651 26.8699C38.4961 26.2333 38.468 24.6703 38.6183 24.0298Z" fill="#241C1C"/>
</svg>
