<svg width="80" height="80" viewBox="0 0 80 80" fill="none" xmlns="http://www.w3.org/2000/svg">
<g clip-path="url(#clip0_490_551)">
<path d="M49.7794 15.6509C50.4961 16.5158 51.5197 16.6702 52.5534 16.854C52.707 20.6288 52.5456 24.4796 52.5981 28.2621C52.6126 29.3105 52.6275 30.4376 52.569 31.4781C52.9713 31.4705 54.3964 31.3431 54.6069 31.5679C54.8546 31.8326 54.9247 32.7043 54.5594 33.0724C53.9585 33.3243 29.216 33.1699 26.1652 33.1794C25.5398 33.1574 24.0279 33.0958 24.7714 31.8C25.0327 31.3445 26.3625 31.4288 26.9271 31.4169C26.9247 26.6217 26.8486 21.578 26.9689 16.8061C28.8277 16.6138 28.1598 16.5773 29.6662 15.7888C32.0121 17.4779 32.6842 16.68 34.8666 15.9141C36.856 17.0162 37.7586 17.1981 39.6569 15.7819C41.8476 17.3356 43.1045 16.8727 44.8111 15.8974C44.8619 15.8683 46.8259 17.0602 47.7741 16.7679C48.8309 16.4421 49.1542 16.4278 49.7794 15.6509ZM47.838 28.1552C48.4084 28.1635 49.5005 28.2574 49.9271 27.9489C50.156 27.2803 50.0879 20.7167 50.0136 19.611C48.8703 19.4421 47.1367 19.5245 45.927 19.5349C44.2651 19.5417 42.603 19.5358 40.9411 19.5172L38.6573 19.5819C38.2428 21.6531 38.7386 24.8612 38.5104 27.0432C38.459 27.5344 38.7511 28.17 39.2769 28.117C40.2545 28.1958 41.2341 28.1738 42.2141 28.1739L47.838 28.1552ZM29.7174 19.5858C29.6164 20.8933 29.6091 22.1834 29.6224 23.4941C29.6495 26.157 29.5976 28.8308 29.6453 31.4927C30.2064 31.4791 30.8226 31.4523 31.3788 31.463C32.9688 31.4576 34.8497 31.4959 36.4156 31.4339C36.2968 30.1714 36.6187 20.0389 36.1718 19.6852C35.8799 19.4542 35.2036 19.5208 34.8409 19.5204C33.2522 19.5212 31.2805 19.4712 29.7174 19.5858Z" fill="#241C1C"/>
<path d="M41.6472 21.2599C42.9274 21.2305 47.833 20.7545 48.2357 22.2977C48.557 23.529 47.8584 23.8954 46.8133 24.1924C46.4371 24.2679 46.3371 24.8661 45.7707 25.2368C45.1062 25.6718 43.3805 25.5164 42.644 25.3435C42.5969 25.2775 42.5505 25.211 42.5048 25.1441C41.8485 24.1811 41.438 22.3641 41.6472 21.2599ZM47.4345 23.316C47.8773 22.6228 47.7732 22.2092 46.9502 21.9966C46.7852 22.3685 46.7178 22.9992 46.886 23.382C47.1459 23.4594 47.1257 23.4113 47.4345 23.316Z" fill="#241C1C"/>
<path d="M41.6109 25.8396C42.2297 25.7434 47.0508 25.7623 47.5159 25.9972L47.5589 26.1402C47.4194 26.3562 47.1557 26.4009 46.8936 26.4901C45.93 26.6021 41.0812 26.9229 40.8081 25.9825C41.0054 25.8253 41.3398 25.8503 41.6109 25.8396Z" fill="#241C1C"/>
<path d="M34.7043 23.835C34.9448 23.8579 35.007 23.8543 35.2103 23.9935C35.4856 24.394 35.5187 25.3011 35.4322 25.7728C35.3222 26.3729 35.3735 26.2993 34.9437 26.636L34.5752 26.4951C33.9997 25.9447 34.2071 24.41 34.7043 23.835Z" fill="#241C1C"/>
<path d="M57.4515 39.7784C57.4688 39.7749 57.486 39.7715 57.5032 39.768C59.1972 39.8202 61.0062 39.6736 62.6813 39.8775C63.0721 39.9251 63.7233 40.1304 63.9868 40.402C64.3348 40.7605 64.7129 41.5453 64.8155 42.0428C65.0749 43.4969 65.311 45.0055 65.4505 46.4809C65.616 48.2299 66.5484 50.7783 65.0928 52.1495C64.1448 53.0424 62.2424 52.818 61.0106 52.7766C61.0472 53.4129 61.0377 54.0822 61.0388 54.7221C61.4001 54.675 61.8494 54.6708 62.2162 54.6772C64.2805 54.713 65.228 54.2586 66.6424 56.0427C66.7058 55.1201 66.6318 53.7114 66.873 52.8689C67.0951 52.0931 68.945 52.1117 69.2407 52.9919C69.15 53.598 68.5652 53.6102 68.0598 53.6872C68.1123 54.776 68.2761 56.0985 67.492 56.9698C66.4537 58.1235 64.5251 58.0377 63.0627 58.1111L62.6327 58.7144C62.0028 58.7998 61.4515 58.8193 60.8155 58.8459C60.8421 59.9139 60.845 60.9822 60.8243 62.0503C62.332 62.1241 65.0812 62.7355 66.0905 63.9189C66.5992 64.534 67.0679 65.1716 67.0593 66.0123C67.048 67.1272 65.5322 67.3 64.9551 66.5834C64.5925 66.1332 64.8897 65.0886 64.9944 64.5101C63.2048 63.7456 61.9878 63.7682 60.3759 63.2788C60.4181 64.2567 60.3926 64.5558 60.8073 65.4415C61.0964 66.3819 60.6878 66.6172 59.9819 67.0776C59.5455 67.0145 59.197 66.9906 58.8755 66.6687C58.2237 66.0161 58.8571 64.9991 59.0205 64.2738C59.0635 64.0826 59.0552 63.5509 59.0529 63.3385C57.1783 63.6446 56.2358 63.8711 54.4577 64.573C54.8192 65.9589 54.9825 66.6699 53.4632 67.1328C52.0888 66.5262 52.1861 65.6222 52.9149 64.4395C53.9812 62.709 56.7753 62.32 58.6129 61.9556C58.6669 61.0383 58.6531 59.8406 58.6712 58.9025C58.1145 58.8469 57.289 58.7917 56.7697 58.5889C56.5879 58.5179 56.3119 58.1204 56.0897 58.1015C54.6814 57.9813 53.2174 58.0893 52.0654 57.0876C51.2168 56.3497 51.3582 54.7876 51.3472 53.6752C51.2044 53.6539 51.0619 53.6299 50.9199 53.6029C50.5685 53.5351 50.3992 53.4746 50.1929 53.1709C50.1273 52.1761 51.9608 52.0904 52.3708 52.5498C52.9083 53.1519 52.7259 55.3795 52.7534 56.2016C54.0227 54.1085 56.1994 54.7002 58.4018 54.6525C58.3562 54.0831 58.3785 53.3643 58.3819 52.7818C55.537 52.8412 53.2811 53.1729 53.6447 49.3257C53.8702 46.9394 54.2232 44.4348 54.5897 42.0571C54.8588 40.3113 55.8502 39.9622 57.4515 39.7784Z" fill="#241C1C"/>
<path d="M27.3775 7.66124C28.4315 7.59981 29.7517 7.6435 30.8351 7.64328L37.1682 7.63743C41.8754 7.6332 46.5973 7.63699 51.3058 7.63262C51.4719 7.63246 52.0226 7.65446 52.1417 7.73385C52.7199 8.11931 53.0073 9.2688 53.3354 9.8511C53.8578 10.7729 54.4495 11.6867 54.7038 12.7276C55.0433 14.1171 54.1384 15.4136 52.758 15.6964C52.1355 15.8263 51.487 15.6957 50.9631 15.3352C50.1558 14.7847 49.9739 14.1849 49.8013 13.3147L49.7622 13.4807C49.3348 15.2523 48.1805 16.0191 46.3996 15.5435C45.3824 15.0455 45.2072 14.6249 44.7489 13.6762C44.2304 14.0595 44.6314 14.9409 43.1592 15.5678C42.5983 15.8087 41.964 15.814 41.3992 15.5825C40.4873 15.215 40.0514 14.554 39.6894 13.7049C39.3848 14.4739 39.1418 15.0164 38.3554 15.453C37.8296 15.7511 37.2052 15.8225 36.6256 15.6509C35.6311 15.3525 35.2018 14.624 34.7558 13.7865C34.7055 13.9074 34.6524 14.0271 34.5966 14.1457C34.2793 14.8145 33.7628 15.328 33.0561 15.5733C32.4305 15.7879 31.7458 15.7486 31.1489 15.4641C30.2998 15.0512 29.971 14.4093 29.6883 13.5757C29.28 14.7262 28.5319 15.6784 27.2065 15.7023C26.5421 15.7079 25.9024 15.451 25.4262 14.9876C24.9601 14.5239 24.7019 13.8911 24.7104 13.2337C24.7179 12.0867 25.8559 10.6658 26.2875 9.59124C26.5179 9.0177 26.9544 8.07492 27.3775 7.66124Z" fill="#241C1C"/>
<path d="M35.1724 69.1191L35.2076 69.1491C35.2908 69.4387 34.6927 71.0225 34.5667 71.4447C35.4264 71.7006 36.3407 71.7986 37.2203 71.9479C41.9893 72.757 45.7338 71.8364 50.1511 70.151C50.5564 71.0264 50.8129 71.7046 51.1426 72.6085C48.9424 73.5522 46.9826 74.187 44.6202 74.586C41.5116 75.0572 39.1365 75.1471 35.9962 74.5302C35.1784 74.3695 34.3493 74.2621 33.5846 73.8938C33.4016 74.8234 33.2463 75.4452 32.899 76.3251C31.9833 75.5153 29.2783 71.8863 28.6057 70.8022C28.8426 70.732 29.2516 70.6416 29.4993 70.5992C31.3321 70.2855 33.3625 69.3798 35.1724 69.1191Z" fill="#241C1C"/>
<path d="M20.9864 19.4381C21.2148 19.4242 21.3384 19.3961 21.5395 19.5136C21.6297 19.8792 19.6106 25.3099 19.3181 26.0603C18.869 25.4746 18.2373 24.5917 17.9194 23.9483C17.3364 24.66 16.4077 25.4674 15.7194 26.3125C12.7425 29.9672 12.0659 32.8601 11.0035 37.1688C10.6663 37.0255 10.2458 36.9479 9.88362 36.8668C9.42712 36.8096 8.88349 36.7023 8.4231 36.6223C8.51696 35.4622 8.79271 34.4028 9.10355 33.2916C10.3982 28.6639 12.5282 25.0519 16.1072 21.8173C15.6208 21.149 15.1869 20.588 14.7878 19.8594C16.6473 19.8257 19.0163 19.5492 20.9864 19.4381Z" fill="#241C1C"/>
<path d="M59.4722 18.2275C59.9938 18.2526 60.8127 19.0336 61.2453 19.352C64.3977 21.6717 66.869 24.9106 68.3545 28.5266C68.6888 29.3401 69.1613 30.4039 69.3034 31.2589C70.246 30.9928 71.0388 30.7501 71.9628 30.4273C71.5526 31.3098 69.8597 37.0583 69.5683 37.2869L69.3725 37.2607C68.1122 35.8333 65.7828 33.9487 64.3085 32.5106C64.9413 32.3258 66.0969 32.2832 66.5797 31.9979C66.7463 31.6319 66.2532 30.6481 66.1118 30.2738C64.6727 26.464 62.2057 23.3835 58.917 20.9988C58.8271 20.9336 58.2453 20.4599 58.2408 20.3949C58.1914 19.6942 59.0607 18.7529 59.4722 18.2275Z" fill="#241C1C"/>
<path d="M30.4395 50.3791C31.4482 50.2529 32.0217 50.495 32.7366 51.1998C32.933 52.2507 32.9168 57.5413 32.7253 58.6047C32.6344 58.6979 32.5419 58.7896 32.4478 58.8798C31.2333 60.0378 28.8281 59.7357 27.1124 59.6911C26.5994 61.5392 26.3649 63.461 25.7988 65.2895C25.6311 65.7411 25.1282 66.4225 24.5632 66.2831C23.4265 66.0026 23.8268 64.4588 23.9788 63.6677C24.3598 62.2263 24.8302 58.7245 25.5379 57.7429C26.2865 57.4433 28.2537 57.3139 29.2018 57.2065C29.1903 56.0859 29.2537 54.8954 29.1646 53.7843C28.992 53.6905 28.1719 53.9953 27.8992 53.9725C27.08 53.9039 26.0536 54.2145 25.425 53.7476C25.0821 53.493 24.9672 52.968 25.2216 52.6249C25.7154 51.9588 27.0923 52.3021 27.9207 52.3071C28.8069 51.7837 28.9954 51.104 30.4395 50.3791Z" fill="#241C1C"/>
<path d="M7.41156 50.2946C9.09855 50.1846 9.6956 51.7326 10.8987 52.2988C11.9064 52.2939 14.0079 51.8074 13.4644 53.6472C13.2688 54.3093 10.3921 54.0962 9.54484 53.6011C9.36465 54.0002 9.50982 56.6056 9.53082 57.2324C14.5445 57.6414 13.6022 57.7217 14.5372 62.5825C14.5361 63.3207 15.2901 64.8616 14.8696 65.6928C14.6809 66.066 14.3861 66.1234 14.0079 66.2641L13.1643 66.0129C12.8104 65.1929 11.9133 60.7667 11.7342 59.7529C7.89092 59.5316 5.43958 60.8198 5.91229 55.5407C6.10682 53.3679 5.04857 51.3734 7.41156 50.2946Z" fill="#241C1C"/>
<path d="M27.7654 4.65989C29.458 4.60316 31.3603 4.64304 33.0651 4.64231L42.7172 4.63949L47.9403 4.63729C49.0259 4.63661 51.059 4.55088 52.0388 4.81598C52.1598 5.32372 52.3455 6.04299 52.1744 6.5312C51.9659 6.71163 52.063 6.65733 51.7456 6.70285C50.2872 6.79349 48.3035 6.74478 46.8161 6.74491L38.1881 6.7438L31.4109 6.7437C30.2147 6.74548 28.9787 6.76006 27.7821 6.72524C27.4658 6.71603 27.4312 6.67759 27.2646 6.48239C27.1058 5.92515 27.2017 4.96145 27.7654 4.65989Z" fill="#241C1C"/>
<path d="M43.5694 48.9294L48.9756 48.9269C50.0058 48.9229 51.393 48.8774 52.3913 48.953C52.6564 49.3307 52.4924 50.504 52.451 51.0155C50.9795 50.8531 48.3322 50.9219 46.7825 50.921C46.8573 51.9244 46.8086 53.5836 46.8112 54.6285L46.8223 61.8925C46.8115 63.1245 46.934 65.5552 46.746 66.8391C46.6961 67.1802 45.4874 67.1082 45.1191 66.9056C44.8992 66.4821 44.9656 52.2936 45.0169 50.9267C44.6637 50.9355 43.474 51.0602 43.2845 50.6901C42.9931 50.1208 43.0066 49.3405 43.5694 48.9294Z" fill="#241C1C"/>
<path d="M67.0394 48.9261C69.5891 48.8798 72.1549 48.952 74.7065 48.9218C75.2163 48.9158 75.7172 48.9404 76.2238 49.0046C76.3365 49.7916 76.3422 50.1504 76.2279 50.9222C75.6484 50.957 74.9999 50.9321 74.4139 50.9217C74.4763 52.432 74.4285 54.2923 74.4277 55.8393L74.4423 65.54C74.4504 65.8535 74.499 66.4846 74.3418 66.7495C73.9162 67.4653 73.2224 67.1571 72.7012 66.7684C72.5942 66.112 72.6518 62.6599 72.6526 61.8196L72.6647 50.9826C71.2357 50.8318 68.4678 50.9268 66.959 50.9444C66.9911 50.4418 66.8596 49.2336 67.0394 48.9261Z" fill="#241C1C"/>
<path d="M11.8062 54.6797C16.703 54.6192 21.6231 54.699 26.521 54.6849C26.7495 54.6842 27.0403 54.7307 27.2307 54.8647C27.5834 55.3256 27.3348 56.109 26.7407 56.1515C25.9811 56.206 25.1872 56.1708 24.4232 56.1607C22.995 56.1383 21.5667 56.1265 20.1382 56.1256C20.1146 59.035 20.129 61.9446 20.1816 64.8537C20.3664 64.9927 21.5565 64.9525 21.873 64.9558C22.5688 65.4592 22.5409 65.5879 22.8391 66.4027C21.8845 66.4239 16.7312 66.4477 16.1288 66.3233L16.0515 66.1836C16.1001 64.7611 17.5958 64.8986 18.6074 64.8762C18.4813 63.0887 18.6668 61.12 18.5939 59.3086C18.5544 58.3292 18.5552 57.1813 18.5951 56.2066C16.7654 56.1102 14.9673 56.1572 13.1384 56.1614C12.4898 56.1628 11.6176 56.1575 11.1402 55.6779C10.9581 55.1945 11.4136 54.9014 11.8062 54.6797Z" fill="#241C1C"/>
<path d="M34.8578 52.2983C35.0744 52.3521 35.2443 52.3633 35.3771 52.5292C35.7764 53.5831 34.0756 60.3401 34.4208 62.105C34.5303 62.6652 35.0269 65.6933 34.7745 66.3168C34.7011 66.4981 34.5579 66.5046 34.3971 66.5384C33.6464 66.3605 33.5808 65.7351 33.4988 65.0932C33.353 63.9509 33.2107 62.8085 33.0696 61.6656C32.1332 61.6279 29.9854 61.581 29.1037 61.6601C28.8902 61.8521 28.9535 61.8357 28.8971 62.1911C28.6647 63.4617 28.6151 64.9298 28.201 66.1425C28.0569 66.5647 27.4013 66.5687 27.1134 66.2575C27.0428 65.6422 27.7449 61.0569 27.9781 60.5059C28.835 60.0923 31.8008 60.5046 33.1543 60.2258L33.194 60.2174C33.2143 58.1177 33.9893 55.2367 34.2048 53.0901C34.2467 52.6737 34.5255 52.5015 34.8578 52.2983Z" fill="#241C1C"/>
<path d="M3.78517 52.2935C3.96244 52.3414 4.16062 52.3894 4.3006 52.5146C4.71527 52.8852 5.52833 59.3015 5.64051 60.3449C6.47294 60.3191 10.0051 60.2349 10.6204 60.4164C10.7102 60.4935 10.7489 60.5524 10.7936 60.6618C11.0933 61.395 11.786 65.6501 11.5058 66.238C11.4081 66.4429 11.3155 66.478 11.1165 66.5516C10.8578 66.5185 10.7904 66.4547 10.5822 66.311C10.3887 66.0268 9.92255 62.7938 9.886 62.279L9.81556 61.6419L5.71573 61.6406C5.61182 62.9894 5.37644 64.4153 5.19423 65.7555C5.1413 66.1447 4.60682 66.6651 4.12479 66.4355C3.68993 65.7819 4.18647 63.6471 4.33197 62.7574C4.74429 60.3031 3.8612 57.7301 3.62258 55.2785C3.52782 54.3046 2.92007 52.9979 3.78517 52.2935Z" fill="#241C1C"/>
<path d="M30.6062 45.708C31.6982 45.6844 32.6091 46.5371 32.6578 47.6282C32.7065 48.7193 31.875 49.6498 30.7853 49.7235C30.0577 49.7728 29.3605 49.4242 28.9634 48.8126C28.5663 48.2009 28.5315 47.4221 28.8726 46.7776C29.2137 46.133 29.8771 45.7237 30.6062 45.708Z" fill="#241C1C"/>
<path d="M8.06227 45.716C9.14768 45.7023 10.0429 46.5627 10.0723 47.6478C10.1017 48.7328 9.25443 49.6404 8.16991 49.6856C7.4542 49.7153 6.77796 49.3574 6.40017 48.7488C6.02237 48.1402 6.0017 47.3753 6.34594 46.7472C6.69018 46.1191 7.34607 45.725 8.06227 45.716Z" fill="#241C1C"/>
<path d="M19.2734 46.3398C19.4141 46.3398 19.4453 46.625 19.4453 46.625L19.7821 48.3564C21.723 48.7672 23.1068 49.788 23.5439 51.8331C23.5924 52.0603 23.6662 52.3457 23.5317 52.5523C23.3578 52.6397 20.0212 52.5773 19.5226 52.581C18.8931 52.5855 15.5467 52.6731 15.1927 52.5457C14.805 52.1104 15.4847 50.5265 15.8312 50.0823C16.6747 49.0011 17.4961 48.6188 18.8323 48.4098C18.9327 47.8173 18.9799 47.2488 19.0465 46.6535C19.0689 46.4535 19.1328 46.3398 19.2734 46.3398Z" fill="#241C1C"/>
<path d="M14.9099 53.0201C17.3379 52.9378 19.8107 53.0688 22.2434 53.0041C22.7171 52.9915 23.6752 52.8823 23.9262 53.2983C23.9227 53.5355 23.9519 53.4454 23.8175 53.6391C22.9158 53.6978 15.2909 53.7889 14.8935 53.6157C14.8043 53.5769 14.7911 53.5149 14.7529 53.4345C14.7631 53.2252 14.7949 53.1921 14.9099 53.0201Z" fill="#241C1C"/>
</g>
<defs>
<clipPath id="clip0_490_551">
<rect width="80" height="80" fill="white"/>
</clipPath>
</defs>
</svg>
